<?xml version="1.0" encoding="UTF-8" standalone="no"?>
<!-- Created with Inkscape (http://www.inkscape.org/) -->

<svg
   width="589.43396"
   height="589.43115"
   viewBox="0 0 589.43396 589.43115"
   version="1.1"
   id="svg1"
   xml:space="preserve"
   inkscape:version="1.3 (0e150ed6c4, 2023-07-21)"
   sodipodi:docname="icon.svg"
   xmlns:inkscape="http://www.inkscape.org/namespaces/inkscape"
   xmlns:sodipodi="http://sodipodi.sourceforge.net/DTD/sodipodi-0.dtd"
   xmlns:xlink="http://www.w3.org/1999/xlink"
   xmlns="http://www.w3.org/2000/svg"
   xmlns:svg="http://www.w3.org/2000/svg"><sodipodi:namedview
     id="namedview1"
     pagecolor="#505050"
     bordercolor="#eeeeee"
     borderopacity="1"
     inkscape:showpageshadow="0"
     inkscape:pageopacity="0"
     inkscape:pagecheckerboard="0"
     inkscape:deskcolor="#d1d1d1"
     inkscape:document-units="px"
     inkscape:zoom="0.5646044"
     inkscape:cx="363.97166"
     inkscape:cy="186.8565"
     inkscape:window-width="1920"
     inkscape:window-height="991"
     inkscape:window-x="-9"
     inkscape:window-y="-9"
     inkscape:window-maximized="1"
     inkscape:current-layer="layer1"
     showgrid="false"
     showguides="true"><sodipodi:guide
       position="1021.0702,90.055557"
       orientation="1,0"
       id="guide36"
       inkscape:locked="false" /><sodipodi:guide
       position="209.32316,1942.0133"
       orientation="0,-1"
       id="guide68"
       inkscape:locked="false" /></sodipodi:namedview><defs
     id="defs1"><linearGradient
       id="linearGradient2"
       inkscape:collect="always"><stop
         style="stop-color:#04c3e9;stop-opacity:1;"
         offset="0"
         id="stop2" /><stop
         style="stop-color:#0165ae;stop-opacity:1;"
         offset="1"
         id="stop3" /></linearGradient><linearGradient
       inkscape:collect="always"
       xlink:href="#linearGradient2"
       id="linearGradient3"
       x1="653.94751"
       y1="615.06604"
       x2="1199.9565"
       y2="1160.0867"
       gradientUnits="userSpaceOnUse" /><filter
       style="color-interpolation-filters:sRGB"
       inkscape:label="Drop Shadow"
       id="filter35"
       x="-0.10742438"
       y="-0.095315128"
       width="1.274529"
       height="1.2568213"><feFlood
         result="flood"
         in="SourceGraphic"
         flood-opacity="0.388235"
         flood-color="rgb(0,0,0)"
         id="feFlood34" /><feGaussianBlur
         result="blur"
         in="SourceGraphic"
         stdDeviation="15"
         id="feGaussianBlur34" /><feOffset
         result="offset"
         in="blur"
         dx="20"
         dy="25"
         id="feOffset34" /><feComposite
         result="comp1"
         operator="in"
         in="flood"
         in2="offset"
         id="feComposite34" /><feComposite
         result="comp2"
         operator="over"
         in="SourceGraphic"
         in2="comp1"
         id="feComposite35" /></filter></defs><g
     inkscape:label="Camada 1"
     inkscape:groupmode="layer"
     id="layer1"
     transform="translate(-632.76892,-592.32056)"><g
       id="g39"
       inkscape:label="V1"
       style="display:inline"
       inkscape:export-filename="icon.svg"
       inkscape:export-xdpi="96"
       inkscape:export-ydpi="96"><rect
         style="fill:url(#linearGradient3);stroke-width:3;stroke-linecap:round;stroke-linejoin:round"
         id="rect1"
         width="589.43115"
         height="589.43115"
         x="632.77167"
         y="592.32056"
         ry="75.123581"
         sodipodi:insensitive="true" /><path
         style="color:#000000;fill:#ffffff;stroke-linecap:round;stroke-linejoin:round;-inkscape-stroke:none;filter:url(#filter35)"
         d="m 793.18164,698.37695 c -17.77248,-1.86538 -33.24894,12.06935 -33.25195,29.93946 v 317.43949 c 0.005,23.1725 25.08785,37.6544 45.1582,26.0722 L 1079.998,913.10937 c 20.0682,-11.58982 20.0682,-40.55666 0,-52.14648 L 805.08789,702.24414 c -3.65398,-2.10899 -7.71039,-3.42653 -11.90625,-3.86719 z"
         id="path38"
         sodipodi:nodetypes="cccccccc"
         transform="matrix(0.82922807,0,0,0.82922807,151.43496,146.31416)"
         inkscape:label="play"
         sodipodi:insensitive="true" /><path
         style="color:#000000;display:inline;fill:#ffffff;fill-opacity:0;stroke-width:1.01219;stroke-linecap:round;stroke-linejoin:round;-inkscape-stroke:none"
         d="m 792.99117,690.90746 c -17.98906,-1.88811 -33.65412,12.21643 -33.65717,30.30431 v 321.30783 c 0.006,23.4549 25.39358,38.1134 45.70851,26.3899 L 1083.3027,908.25667 c 20.3128,-11.73106 20.3128,-41.05089 0,-52.78195 L 805.04251,694.82177 c -3.69851,-2.13469 -7.80435,-3.46828 -12.05134,-3.91431 z"
         id="path52"
         sodipodi:nodetypes="cccccccc"
         inkscape:label="play"
         sodipodi:insensitive="true" /><path
         id="path36"
         style="fill:#ffffff;fill-opacity:1;stroke:#ffffff;stroke-width:3.22706;stroke-linecap:round;stroke-linejoin:round;stroke-dasharray:none;stroke-opacity:1"
         d="m 723.35467,797.06043 h 34.3658 m -34.3658,8.31036 V 764.7702 h -32.69373 c -9.70011,-3.5e-4 -17.56382,9.08846 -17.56393,20.30026 1.1e-4,11.21187 7.86382,20.30069 17.56393,20.30033 z m -50.25766,-20.30033 h -36.17213 z m 50.25766,-13.47638 h 34.3658"
         sodipodi:nodetypes="cccccsccccccc"
         inkscape:label="AND" /><path
         id="path36-0"
         style="display:inline;fill:#ffffff;fill-opacity:1;stroke:#ffffff;stroke-width:3;stroke-linecap:round;stroke-linejoin:round;stroke-dasharray:none;stroke-opacity:1"
         d="m 700.71184,670.82365 v 28.07454 m -6.789,-28.07454 h 33.16794 v -26.70857 c 2.9e-4,-7.92434 -7.42466,-14.34846 -16.58394,-14.34855 -9.15935,9e-5 -16.5843,6.42421 -16.584,14.34855 z m 16.584,-41.05712 v -29.55019 z m 11.00929,41.05712 v 28.07454"
         sodipodi:nodetypes="cccccsccccccc"
         inkscape:label="AND" /><path
         id="path36-0-4"
         style="display:inline;fill:#ffffff;fill-opacity:1;stroke:#ffffff;stroke-width:3;stroke-linecap:round;stroke-linejoin:round;stroke-dasharray:none;stroke-opacity:1"
         d="M 1142.6973,1029.5745 V 1001.5 m 6.789,28.0745 h -33.1679 v 26.7086 c -3e-4,7.9243 7.4247,14.3484 16.5839,14.3485 9.1594,-10e-5 16.5843,-6.4242 16.584,-14.3485 z m -16.5841,41.0571 v 29.5502 z m -11.0092,-41.0571 V 1001.5"
         sodipodi:nodetypes="cccccsccccccc"
         inkscape:label="AND" /><path
         id="path36-1"
         style="display:inline;fill:#ffffff;fill-opacity:1;stroke:#ffffff;stroke-width:3;stroke-linecap:round;stroke-linejoin:round;stroke-dasharray:none;stroke-opacity:1"
         d="m 972.4596,748.05371 v 15.01123 m -6.702,-15.01123 H 998.5 v -26.36589 c 3e-4,-7.82266 -7.3293,-14.16444 -16.3711,-14.16452 -9.0419,8e-5 -16.3715,6.34186 -16.3713,14.16452 z m 16.3713,-40.53041 v -29.17105 z m 10.868,40.53041 v 34.66483"
         sodipodi:nodetypes="cccccsccccccc"
         inkscape:label="AND-1" /><path
         id="path36-5"
         style="fill:#ffffff;fill-opacity:1;stroke:#ffffff;stroke-width:3;stroke-linecap:round;stroke-linejoin:round;stroke-dasharray:none;stroke-opacity:1"
         d="m 982.1289,674.00235 v 32.6998 m -10.07365,-27.84869 c 0,0 7.43949,-6.49007 22.32883,-6.49007 14.88932,0 21.99402,6.49007 21.99402,6.49007 0,-29.26762 -17.59907,-47.82126 -21.99402,-47.82126 -4.39494,0 -22.32883,21.75397 -22.32883,47.82126 z m 22.32883,-47.82126 v -31.71868 z m 11.97652,42.91432 v 32.69979"
         sodipodi:nodetypes="ccczczczczcc"
         inkscape:label="OR" /><path
         style="fill:#ffffff;fill-opacity:0.0725664;stroke:#ffffff;stroke-width:3;stroke-linecap:butt;stroke-linejoin:miter;stroke-dasharray:none;stroke-opacity:1"
         d="M 655.01094,785.07046 H 632.77167"
         id="path53" /><path
         style="fill:#ffffff;fill-opacity:0.0725664;stroke:#ffffff;stroke-width:3;stroke-linecap:butt;stroke-linejoin:miter;stroke-dasharray:none;stroke-opacity:1"
         d="m 994.38408,615.17286 v -22.8523"
         id="path54" /><path
         style="fill:none;fill-opacity:0.0725664;stroke:#ffffff;stroke-width:3;stroke-linecap:round;stroke-linejoin:round;stroke-dasharray:none;stroke-opacity:1"
         d="m 992.9969,782.71854 -7.01473,7.01473 h -16.54746"
         id="path58" /><circle
         id="path59"
         style="fill:#ffffff;fill-opacity:1;stroke:none;stroke-width:26.8092"
         cx="972.45959"
         cy="763.06494"
         r="2.759038" /><circle
         id="circle60"
         style="fill:#ffffff;fill-opacity:1;stroke:none;stroke-width:26.8092"
         cx="969.43469"
         cy="789.73328"
         r="2.759038" /><circle
         id="circle61"
         style="fill:#ffffff;fill-opacity:1;stroke:none;stroke-width:26.8092"
         cx="757.72046"
         cy="771.59406"
         r="2.759038" /><circle
         id="circle62"
         style="fill:#ffffff;fill-opacity:1;stroke:none;stroke-width:26.8092"
         cx="757.72046"
         cy="797.06042"
         r="2.759038" /><circle
         id="circle62-3"
         style="display:inline;fill:#ffffff;fill-opacity:1;stroke:none;stroke-width:26.8092"
         cx="672.67871"
         cy="1059.0586"
         r="2.759038" /><path
         style="fill:none;fill-opacity:1;stroke:#ffffff;stroke-width:3;stroke-linecap:round;stroke-linejoin:round;stroke-dasharray:none;stroke-opacity:1"
         d="m 1006.3606,706.64631 8.2004,8.20043 h 16.8583"
         id="path62"
         sodipodi:nodetypes="ccc" /><circle
         id="circle63"
         style="fill:#ffffff;fill-opacity:1;stroke:none;stroke-width:26.8092"
         cx="1031.4193"
         cy="714.84674"
         r="2.759038" /><path
         style="fill:none;fill-opacity:1;stroke:#ffffff;stroke-width:3;stroke-linecap:round;stroke-linejoin:round;stroke-dasharray:none;stroke-opacity:1"
         d="m 994.4969,804.5456 29.4477,-29.44775 h 79.7042"
         id="path63"
         sodipodi:nodetypes="ccc" /><path
         style="fill:none;fill-opacity:1;stroke:#ffffff;stroke-width:3;stroke-linecap:round;stroke-linejoin:round;stroke-dasharray:none;stroke-opacity:1"
         d="M 759.334,735.0279 H 719.97311 L 700.71184,715.76662 V 670.82365"
         id="path64" /><path
         style="fill:none;fill-opacity:1;stroke:#ffffff;stroke-width:3;stroke-linecap:butt;stroke-linejoin:round;stroke-dasharray:none;stroke-opacity:1"
         d="m 710.50684,600.21634 v -7.89578"
         id="path65" /><circle
         id="circle65"
         style="fill:#ffffff;fill-opacity:1;stroke:none;stroke-width:26.8092"
         cx="759.33398"
         cy="735.02789"
         r="2.759038" /><circle
         id="circle66"
         style="fill:#ffffff;fill-opacity:1;stroke:none;stroke-width:26.8092"
         cx="721.51611"
         cy="698.89819"
         r="2.759038" /><circle
         id="circle67"
         style="fill:#ffffff;fill-opacity:1;stroke:none;stroke-width:26.8092"
         cx="994.71417"
         cy="804.32831"
         r="2.759038" /><circle
         id="circle68"
         style="fill:#ffffff;fill-opacity:1;stroke:none;stroke-width:26.8092"
         cx="1122.6887"
         cy="755.72705"
         r="2.759038" /><path
         id="path70"
         style="fill:#ffffff;fill-opacity:1;stroke:#ffffff;stroke-width:3;stroke-linecap:round;stroke-linejoin:round;stroke-dasharray:none;stroke-opacity:1"
         d="m 867.47432,674.88267 v 18.96658 m 0,-40.28593 v -15.7228 m -3e-5,15.72276 12.30875,21.31939 h -24.61751 z" /><path
         style="fill:none;fill-opacity:1;stroke:#ffffff;stroke-width:3;stroke-linecap:round;stroke-linejoin:round;stroke-dasharray:none;stroke-opacity:1"
         d="m 836.90166,713.21559 h 17.90036 l 12.6723,-12.6723 v -26.17733"
         id="path71" /><path
         style="fill:none;fill-opacity:1;stroke:#ffffff;stroke-width:3;stroke-linecap:butt;stroke-linejoin:round;stroke-dasharray:none;stroke-opacity:1"
         d="m 822.25711,618.08912 h 35.46581 l 9.7514,9.7514 v 10"
         id="path72" /><circle
         id="circle72"
         style="fill:#ffffff;fill-opacity:1;stroke:none;stroke-width:26.8092"
         cx="823.41266"
         cy="618.08911"
         r="2.759038" /><circle
         id="circle73"
         style="fill:#ffffff;fill-opacity:1;stroke:none;stroke-width:26.8092"
         cx="836.90167"
         cy="713.21558"
         r="2.759038" /><path
         style="fill:none;fill-opacity:1;stroke:#ffffff;stroke-width:3;stroke-linecap:butt;stroke-linejoin:round;stroke-dasharray:none;stroke-opacity:1"
         d="m 895.46119,716.34674 16.73966,-16.73965 v -67.14848 l 10.41607,-10.41608"
         id="path73" /><circle
         id="circle74"
         style="fill:#ffffff;fill-opacity:1;stroke:none;stroke-width:26.8092"
         cx="895.46118"
         cy="716.34674"
         r="2.759038" /><circle
         id="circle75"
         style="fill:#ffffff;fill-opacity:1;stroke:none;stroke-width:26.8092"
         cx="922.61694"
         cy="622.04254"
         r="2.759038" /><path
         id="path75"
         style="fill:#ffffff;fill-opacity:1;stroke:#ffffff;stroke-width:3;stroke-linecap:round;stroke-linejoin:round;stroke-dasharray:none;stroke-opacity:1"
         d="m 1142.6973,986.35652 v -18.96658 m 0,40.28586 v 15.7228 m 0,-15.7227 -12.3088,-21.31938 h 24.6176 z" /><path
         style="fill:none;fill-opacity:1;stroke:#ffffff;stroke-width:3;stroke-linecap:butt;stroke-linejoin:round;stroke-dasharray:none;stroke-opacity:1"
         d="m 1142.6973,967.38994 13.6336,-13.63363 h 65.8719"
         id="path76" /><path
         style="fill:none;fill-opacity:1;stroke:#ffffff;stroke-width:3;stroke-linecap:butt;stroke-linejoin:round;stroke-dasharray:none;stroke-opacity:1"
         d="m 1121.893,1001.5 -10.4689,-10.46889 h -18.3979"
         id="path77" /><path
         style="fill:none;fill-opacity:1;stroke:#ffffff;stroke-width:3;stroke-linecap:butt;stroke-linejoin:round;stroke-dasharray:none;stroke-opacity:1"
         d="m 1132.9022,1100.1818 18.7525,18.7525 v 0"
         id="path78"
         sodipodi:nodetypes="ccc" /><circle
         id="circle78"
         style="fill:#ffffff;fill-opacity:1;stroke:none;stroke-width:26.8092"
         cx="1093.0262"
         cy="991.03113"
         r="2.759038" /><circle
         id="circle79"
         style="fill:#ffffff;fill-opacity:1;stroke:none;stroke-width:26.8092"
         cx="1151.6547"
         cy="1118.9343"
         r="2.759038" /><path
         id="path1"
         style="display:inline;fill:#ffffff;fill-opacity:1;stroke:#ffffff;stroke-width:3;stroke-linecap:butt;stroke-linejoin:round;stroke-dasharray:none;stroke-opacity:1"
         d="m 697.55018,1059.1106 -24.87149,-0.052 m 24.89403,-11.0535 -0.111,54.2497 43.68449,0.09 c 12.96097,0.027 23.49331,-12.0956 23.52397,-27.0767 0.0298,-14.9812 -10.45231,-27.1467 -23.41329,-27.1729 z m 67.09794,27.262 48.33233,0.097 z m -67.1899,17.8698 -64.70909,-0.1176"
         sodipodi:nodetypes="cccccsccccccc"
         inkscape:label="AND-1" /><path
         id="path2"
         style="fill:#ffffff;fill-opacity:1;stroke:#ffffff;stroke-width:3;stroke-linecap:butt;stroke-linejoin:round;stroke-dasharray:none;stroke-opacity:1"
         d="m 779.55812,1154.0055 v 27.7462 m 0,-45.4457 v -17.4916 m 0,17.4915 10.21888,17.6996 h -20.43776 z"
         sodipodi:nodetypes="cccccccc" /><path
         id="path3"
         style="fill:#ffffff;fill-opacity:1;stroke:#ffffff;stroke-width:3;stroke-linecap:round;stroke-linejoin:round;stroke-dasharray:none;stroke-opacity:1"
         d="m 830.60402,1075.3311 h -40.03771 m 34.09802,-12.3342 c 0,0 7.94649,9.1089 7.94649,27.3394 0,18.2306 -7.94649,26.9297 -7.94649,26.9297 35.83531,0 58.55239,-21.5484 58.55239,-26.9297 0,-5.381 -26.63554,-27.3394 -58.55239,-27.3394 z m 58.55239,27.3394 h 38.83645 z m -52.54437,14.6641 h -40.03771"
         sodipodi:nodetypes="ccczczczczcc"
         inkscape:label="OR" /><path
         style="fill:none;stroke:#ffffff;stroke-width:3;stroke-linejoin:round;stroke-dasharray:none;stroke-opacity:1"
         d="m 790.63464,1105.0004 -11.07652,11.0765 v 13.475"
         id="path4" /><circle
         id="circle4"
         style="fill:#ffffff;fill-opacity:1;stroke:none;stroke-width:26.8092"
         cx="936.68689"
         cy="1050.1318"
         r="2.759038" /><path
         style="fill:none;stroke:#ffffff;stroke-width:3;stroke-linecap:butt;stroke-linejoin:round;stroke-dasharray:none;stroke-opacity:1"
         d="m 922.05317,1090.3363 14.63374,-14.6337 v -25.5708"
         id="path5" /><path
         style="fill:none;stroke:#ffffff;stroke-width:3;stroke-linecap:butt;stroke-linejoin:round;stroke-dasharray:none;stroke-opacity:1"
         d="m 652.25189,837.53803 15.96801,15.96802 v 55.7315 l 14.55908,14.55907"
         id="path6" /><circle
         id="circle6"
         style="fill:#ffffff;fill-opacity:1;stroke:none;stroke-width:26.8092"
         cx="682.77899"
         cy="923.79663"
         r="2.759038" /><circle
         id="circle7"
         style="fill:#ffffff;fill-opacity:1;stroke:none;stroke-width:26.8092"
         cx="652.25189"
         cy="837.53802"
         r="2.759038" /><path
         style="fill:none;stroke:#ffffff;stroke-width:3;stroke-linecap:butt;stroke-linejoin:round;stroke-dasharray:none;stroke-opacity:1"
         d="m 731.52292,930.04275 v 53.6886"
         id="path7"
         sodipodi:nodetypes="cc" /><circle
         id="circle8"
         style="fill:#ffffff;fill-opacity:1;stroke:none;stroke-width:26.8092"
         cx="731.52289"
         cy="930.04272"
         r="2.759038" /><circle
         id="circle9"
         style="fill:#ffffff;fill-opacity:1;stroke:none;stroke-width:26.8092"
         cx="731.52289"
         cy="983.73132"
         r="2.759038" /><path
         id="path9"
         style="fill:#ffffff;fill-opacity:1;stroke:#ffffff;stroke-width:3;stroke-linecap:round;stroke-linejoin:round;stroke-dasharray:none;stroke-opacity:1"
         d="m 1046.4288,1146.1785 h 18.9665 m -40.2858,0 h -15.7228 m 15.7227,0 21.3194,-12.3088 v 24.6176 z" /><path
         style="fill:none;stroke:#ffffff;stroke-width:3;stroke-linecap:butt;stroke-linejoin:round;stroke-dasharray:none;stroke-opacity:1"
         d="m 1065.3953,1146.1785 9.8277,-9.8277 -0.012,-18.9231"
         id="path11" /><path
         style="fill:none;stroke:#ffffff;stroke-width:3;stroke-linecap:butt;stroke-linejoin:round;stroke-dasharray:none;stroke-opacity:1"
         d="M 1009.3867,1146.1785 H 978.68368"
         id="path12" /><circle
         id="circle13"
         style="fill:#ffffff;fill-opacity:1;stroke:none;stroke-width:26.8092"
         cx="978.68372"
         cy="1146.1786"
         r="2.759038" /><circle
         id="circle14"
         style="fill:#ffffff;fill-opacity:1;stroke:none;stroke-width:26.8092"
         cx="1075.2109"
         cy="1117.4277"
         r="2.759038" /><path
         style="fill:none;stroke:#ffffff;stroke-width:3;stroke-linecap:butt;stroke-linejoin:round;stroke-dasharray:none;stroke-opacity:1"
         d="m 1030.4679,975.67521 -13.2337,13.23371 -0.7753,85.64388 14.5138,14.5139"
         id="path14" /><circle
         id="circle15"
         style="fill:#ffffff;fill-opacity:1;stroke:none;stroke-width:26.8092"
         cx="1032.0334"
         cy="974.61456"
         r="2.759038" /><circle
         id="circle16"
         style="fill:#ffffff;fill-opacity:1;stroke:none;stroke-width:26.8092"
         cx="1030.9728"
         cy="1089.0667"
         r="2.759038" /><path
         id="path16"
         style="fill:#ffffff;fill-opacity:1;stroke:#ffffff;stroke-width:3;stroke-linecap:butt;stroke-linejoin:bevel;stroke-dasharray:none;stroke-opacity:1"
         d="m 1136.8088,818.04592 v 26.74943 m -11.5983,-21.16411 c 0,0 8.5655,-7.47239 25.7083,-7.47239 17.1429,0 25.323,7.47239 25.323,7.47239 0,-33.69728 -20.2628,-55.05902 -25.323,-55.05902 -5.06,0 -25.7083,25.04645 -25.7083,55.05902 z m 25.7083,-55.05902 v -36.51933 z m 13.7892,49.40947 v 53.04962"
         sodipodi:nodetypes="ccczczczczcc"
         inkscape:label="OR" /><path
         id="path16-0"
         style="display:inline;fill:#ffffff;fill-opacity:1;stroke:#ffffff;stroke-width:3;stroke-linecap:butt;stroke-linejoin:bevel;stroke-dasharray:none;stroke-opacity:1"
         d="m 1123.0196,718.07802 v 37.64904 m -11.5983,-32.06372 c 0,0 8.5655,-7.47239 25.7083,-7.47239 17.1429,0 25.323,7.47239 25.323,7.47239 0,-33.69728 -20.2628,-55.05902 -25.323,-55.05902 -5.06,0 -25.7083,25.04645 -25.7083,55.05902 z m 25.7083,-55.05902 v -30.3203 z m 13.7892,49.40947 v 37.64896"
         sodipodi:nodetypes="ccczczczczcc"
         inkscape:label="OR" /><circle
         id="circle17"
         style="fill:#ffffff;fill-opacity:1;stroke:none;stroke-width:26.8092"
         cx="1017.2342"
         cy="988.90894"
         r="2.759038" /><circle
         id="circle18"
         style="fill:#ffffff;fill-opacity:1;stroke:none;stroke-width:26.8092"
         cx="978.68372"
         cy="1146.1786"
         r="2.759038" /><path
         style="fill:none;stroke:#ffffff;stroke-width:3;stroke-linecap:butt;stroke-linejoin:bevel;stroke-dasharray:none;stroke-opacity:1"
         d="m 1103.6488,775.09785 19.3708,-19.37079"
         id="path18"
         sodipodi:nodetypes="cc" /><path
         style="fill:none;stroke:#ffffff;stroke-width:3;stroke-linecap:butt;stroke-linejoin:bevel;stroke-dasharray:none;stroke-opacity:1"
         d="m 1137.1296,638.28402 v -5.09731 l 11.4874,-11.48736 h 21.2286"
         id="path19" /><circle
         id="circle19"
         style="fill:#ffffff;fill-opacity:1;stroke:none;stroke-width:26.8092"
         cx="1169.8456"
         cy="621.69934"
         r="2.759038" /><circle
         id="circle20"
         style="fill:#ffffff;fill-opacity:1;stroke:none;stroke-width:26.8092"
         cx="1136.8088"
         cy="844.79535"
         r="2.759038" /><circle
         id="circle21"
         style="fill:#ffffff;fill-opacity:1;stroke:none;stroke-width:26.8092"
         cx="1164.708"
         cy="871.03131"
         r="2.759038" /><path
         style="fill:none;stroke:#ffffff;stroke-width:3;stroke-linecap:butt;stroke-linejoin:bevel;stroke-dasharray:none;stroke-opacity:1"
         d="m 1077.3909,911.66983 h 81.386"
         id="path21" /><circle
         id="circle22"
         style="fill:#ffffff;fill-opacity:1;stroke:none;stroke-width:26.8092"
         cx="1158.7769"
         cy="911.6698"
         r="2.759038" /><circle
         id="circle23"
         style="fill:#ffffff;fill-opacity:1;stroke:none;stroke-width:26.8092"
         cx="1077.3909"
         cy="911.6698"
         r="2.759038" /></g></g></svg>
